<?xml version="1.0" encoding="UTF-8"?>
<svg width="800px" height="800px" viewBox="0 0 800 800" version="1.1" xmlns="http://www.w3.org/2000/svg" xmlns:xlink="http://www.w3.org/1999/xlink">
    <title>Profile Picture Copy</title>
    <g id="Profile-Picture-Copy" stroke="none" stroke-width="1" fill="none" fill-rule="evenodd">
        <g id="Head" transform="translate(11.000000, 110.000000)" stroke="#000000" stroke-width="7">
            <path d="M185.644528,241.752689 C164.465437,119.341144 215.718982,42.7052107 339.405162,11.8448897 C524.934433,-34.4455917 568.03707,67.1307385 579.256245,107.296173 C590.475419,147.461607 560.591705,191.651598 555.360181,198.342512 C550.128657,205.033426 523.958668,226.816876 536.819336,284.917857 C538.803226,293.659437 541.112124,303.860559 543.74603,315.521222 C544.718489,319.831153 549.000896,322.536416 553.310761,321.563663 C553.813823,321.45012 554.304728,321.288199 554.776543,321.079982 L579.256245,310.286236 L579.256245,310.286236 L579.256245,226.554856 C579.256245,214.93601 643,190.837768 643,241.752689 C643,275.695969 621.752082,287.359319 579.256245,276.742738" id="Path"></path>
            <path d="M592,242 C600.210362,228.64105 612.210362,225.577958 628,232.810725" id="Path-2" stroke-linecap="round" stroke-linejoin="round"></path>
            <path d="M607,230 C617.110595,238.225521 618.702512,247.892187 611.775753,259" id="Path-3" stroke-linecap="round" stroke-linejoin="round"></path>
            <path d="M186,388 C162.583116,388.345277 140.515741,395.450426 119.797876,409.315447 C88.7210785,430.11298 62.3683,479.717092 0,492.868162 C44.0446277,525.321548 94.5153508,522.083515 151.412169,483.154065 C142.265545,475.006282 145.743528,454.581752 161.846117,421.880474 L186,388 Z" id="Path-5" fill="#000000" stroke-linecap="round" stroke-linejoin="round"></path>
            <path d="M282.704969,306.71849 C210.757029,327.428763 170.593434,318.791792 162.214183,280.807575 C149.645306,223.831251 320.332738,194.416626 299.604214,272.257401 C292.782825,298.589138 291.105086,305.800047 222.440332,356.22063 C153.775577,406.641213 147.973188,458.684117 145.392262,467.942931 C142.811336,477.201746 153.13734,493.585233 171.328836,473.294936 C189.520332,453.00464 223.176258,422.76187 273.015065,402.253963 C306.240937,388.582025 315.103987,374.007851 299.604214,358.531441 C289.694445,351.646498 274.949633,354.927518 255.36978,368.374499" id="Path-4" stroke-linecap="round" stroke-linejoin="round"></path>
            <path d="M418.254881,315 C462.10222,315 498.68893,287.899421 493.509761,259.066757 C488.330592,230.234093 470.351814,208.624736 418.254881,213.756948 C366.157947,218.889161 343,250.647009 343,278.672968 C343,306.698928 374.407541,315 418.254881,315 Z" id="Oval"></path>
            <ellipse id="Oval" fill="#000000" cx="204.5" cy="279" rx="10.5" ry="9"></ellipse>
            <ellipse id="Oval" fill="#000000" cx="420.5" cy="277" rx="10.5" ry="9"></ellipse>
            <path d="M288.299284,398 C334.356883,402.899049 368.479217,422.881266 390.666285,457.94665 C412.853353,493.012035 450.631258,506.434259 504,498.213324 C482.499581,519.061322 455.323996,527.992065 422.473247,525.005553 C449.401672,538.056381 468.850166,544.581795 480.818728,544.581795 C498.771572,544.581795 393.177375,561.545327 334.093809,505.61416 C294.704765,468.326715 246.673495,452.437545 190,457.94665 C213.859227,436.123466 230.971145,423.62508 241.335755,420.451492 C251.700366,417.277905 267.354875,409.794074 288.299284,398 Z" id="Path-6" fill="#000000" stroke-linecap="round" stroke-linejoin="round"></path>
            <path d="M197.230442,318 C192.567583,336.06497 201.157436,348.06497 223,354" id="Path-7"></path>
            <path d="M375,332 C392.053752,350.306778 411.154443,358.14049 432.302072,355.501135 C449.121688,354.348995 465.687664,346.515283 482,332" id="Path-8" stroke-linecap="round" stroke-linejoin="round"></path>
            <path d="M204.404802,457.286908 C177.11247,484.428969 175.919587,498 200.826154,498 C222.073144,498 298.426725,468.56709 363.721048,441.004668 C413.237631,420.102439 456.39393,400.275946 464.332384,395.177848 C482.738767,383.357216 496.339773,377.571201 500.366243,402.061891 C504.392712,426.552581 491.4067,462.466212 397.592586,490.284891" id="Path-9"></path>
            <path d="M234,491.979794 C236.470272,499.326598 242.233855,503 251.29075,503 C260.347644,503 267.631416,499.326598 273.142066,491.979794 C282.940768,497.634056 293.57644,497.634056 305.049082,491.979794 C316.521724,486.325532 315.66706,479.801622 302.485091,472.408065 L375.281841,441.572797 L384.427248,451.866072 C393.0546,452.541188 400.01205,447.930223 405.299597,438.033178 C416.469584,440.029872 426.117158,438.674263 434.24232,433.96635 C442.367481,429.258436 447.19819,423.092149 448.734446,415.467489 C461.944844,416.768433 472.482106,414.13554 480.346233,407.568811 C488.21036,401.002082 490.014286,393.479145 485.758009,385" id="Path-10" stroke-linecap="round" stroke-linejoin="round"></path>
            <path d="M560,60.497242 C637.191792,43.2937336 685.750861,75.4472592 705.677208,156.957819 C715.966865,214.094545 692.070175,251.775272 633.987138,270" id="Path-11"></path>
            <path d="M575,163 C594.333333,173.541479 604,189.208145 604,210" id="Path-12" stroke-linecap="round" stroke-linejoin="round"></path>
            <path d="M582,118 C608.923274,119.916435 629.101457,135.826841 642.53455,165.731218 C651.15515,185.749005 651.15515,208.171932 642.53455,233" id="Path-13" stroke-linecap="round"></path>
            <path d="M575,91.5374138 C616.450895,81.1846015 647.637186,88.5479476 668.558871,113.627452 C689.480556,138.706956 701.960932,168.164472 706,202" id="Path-14" stroke-linecap="round" stroke-linejoin="round"></path>
            <ellipse id="Oval" cx="469.5" cy="172.5" rx="12" ry="9"></ellipse>
            <ellipse id="Oval" cx="547.5" cy="120.5" rx="9" ry="8"></ellipse>
            <ellipse id="Oval" cx="493.5" cy="64" rx="12" ry="10.5"></ellipse>
            <path d="M620.884279,280 C622.175888,306.78053 612.655328,337.405784 592.3226,371.875762 C561.823508,423.580729 550.811107,461.984804 601.821146,525.490187 C605.747992,530.508383 605.747992,538.168637 601.821146,548.470951 C595.930875,563.924421 584.105097,584.593503 561.479315,595.77211 C538.853534,606.950717 503.157876,601.739842 492.102975,590.716864 C481.048075,579.693887 426.303169,528.818283 428.732402,522.482562 C430.35189,518.258748 418.44109,506.420798 393,486.968714" id="Path-24"></path>
            <path d="M421,479 C425.623954,461.385048 436.759705,452.577573 454.407253,452.577573 C465.826656,428.893164 479.690905,419.432824 496,424.196551 C489.807179,440.973268 477.928638,454.301355 460.364378,464.180813 C442.800118,474.060271 429.678658,479 421,479 Z" id="tongue"></path>
        </g>
    </g>
</svg>